<svg width="262" height="162" viewBox="0 0 262 162" fill="none" xmlns="http://www.w3.org/2000/svg">
<g clip-path="url(#clip0_1_855)">
<rect y="-0.000244141" width="262" height="162" rx="16" fill="#DAF1F2"/>
<path d="M195.251 58.9622C195.008 60.7038 193.518 61.9998 191.76 61.9998H80.916C78.847 61.9998 77.2556 60.1706 77.542 58.1215C79.7477 42.3388 86.3273 27.3114 96.354 14.925C97.3323 13.7164 98.8158 12.9998 100.371 12.9998H212.285C213.671 12.9998 214.438 14.6071 213.566 15.6846C203.865 27.668 197.612 42.0676 195.478 57.3368L195.251 58.9622Z" fill="#3F556B"/>
<path d="M83.9142 61.9998C81.8453 61.9998 80.254 60.1708 80.5402 58.1218C82.7459 42.3392 89.325 27.3109 99.3517 14.9246C100.33 13.7161 101.814 12.9998 103.369 12.9998H215.283C216.669 13 217.436 14.6069 216.564 15.6843C206.863 27.6677 200.611 42.0675 198.477 57.3367L198.249 58.9626C198.006 60.704 196.516 61.9997 194.758 61.9998H83.9142Z" fill="#123247"/>
<path d="M199.25 63.9622C199.007 65.7038 197.517 66.9998 195.759 66.9998H84.915C82.846 66.9998 81.2547 65.1706 81.541 63.1215C83.7467 47.3388 90.2099 32.4552 100.237 20.0688L100.444 19.8123C101.377 18.6597 102.76 17.9623 104.241 17.8968L215 12.9998H215.156C216.859 12.9998 218.375 14.0778 218.934 15.6862L219.406 17.0443C219.613 17.6384 219.498 18.2971 219.102 18.786L218.598 19.409C208.221 32.2271 201.533 47.6295 199.25 63.9622Z" fill="#123247"/>
<path d="M187.76 55.4998H76.916C75.1508 55.4998 73.7931 53.9393 74.0371 52.1912C76.23 36.4997 82.7722 21.5565 92.7422 9.23999C93.6268 8.14716 94.969 7.49976 96.3711 7.49976H208.285C209.251 7.49987 209.785 8.61935 209.178 9.36987C199.42 21.4238 193.13 35.9082 190.983 51.2673L190.756 52.8933C190.547 54.3878 189.269 55.4998 187.76 55.4998Z" fill="white" stroke="#E8E8E8"/>
<path d="M31 69.9998C31 61.1632 38.1634 53.9998 47 53.9998H208V197H47C38.1634 197 31 189.836 31 181V69.9998Z" fill="#576D7E"/>
<path d="M208 53.9998H228C236.837 53.9998 244 61.1632 244 69.9998V181C244 189.836 236.837 197 228 197H208V53.9998Z" fill="#3E5768"/>
<path d="M60 106.5C60 102.91 62.9101 99.9998 66.5 99.9998H184.5C188.09 99.9998 191 102.91 191 106.5C191 110.09 188.09 113 184.5 113H66.5C62.9101 113 60 110.09 60 106.5Z" fill="#123247"/>
<path d="M60 81.4998C60 77.9099 62.9101 74.9998 66.5 74.9998C70.0899 74.9998 73 77.9099 73 81.4998C73 85.0896 70.0899 87.9998 66.5 87.9998C62.9101 87.9998 60 85.0896 60 81.4998Z" fill="#84BD5A"/>
<path d="M77 81.4998C77 77.9099 79.9101 74.9998 83.5 74.9998H97.5C101.09 74.9998 104 77.9099 104 81.4998C104 85.0896 101.09 87.9998 97.5 87.9998H83.5C79.9101 87.9998 77 85.0896 77 81.4998Z" fill="#123247"/>
<path d="M69.6533 106.5H180.497C182.262 106.5 183.62 108.06 183.376 109.808C181.183 125.5 174.641 140.443 164.671 152.76C163.786 153.852 162.444 154.5 161.042 154.5H49.1279C48.1625 154.5 47.6282 153.38 48.2354 152.63C57.993 140.576 64.2832 126.091 66.4297 110.732L66.6572 109.106C66.8662 107.612 68.1443 106.5 69.6533 106.5Z" fill="white" stroke="#E8E8E8"/>
</g>
<defs>
<clipPath id="clip0_1_855">
<rect y="-0.000244141" width="262" height="162" rx="16" fill="white"/>
</clipPath>
</defs>
</svg>
